<svg xmlns="http://www.w3.org/2000/svg" viewBox="0 0 1400 900" font-family="Inter, Helvetica, Arial, sans-serif">
  <style>
    .H { font-size: 24px; fill: #1E2761; font-weight: 700; }
    .h { font-size: 16px; fill: #1E2761; font-weight: 700; }
    .t { font-size: 13px; fill: #1E293B; }
    .m { font-size: 12px; fill: #64748B; font-style: italic; }
    .lbl { font-size: 12px; fill: #475569; }
    .lblb { font-size: 13px; fill: #1E2761; font-weight: 700; }
    .axis { stroke: #94A3B8; stroke-width: 1; }
    .grid { stroke: #E2E8F0; stroke-width: 0.5; stroke-dasharray: 2 3; }
    .ax { font-size: 12px; fill: #475569; }
    .acc { font-size: 12px; fill: #F59E0B; font-weight: 700; letter-spacing: 1px; }
  </style>

  <text x="700" y="40" class="H" text-anchor="middle">Figure 4. v5 sweep leaderboard  ·  adversarial-error decomposition</text>
  <text x="700" y="66" class="m" text-anchor="middle">11 cross-attention runs across Phase 1 (training-dial + arch sweep) and Phase 2 (encoder sweep).  Lower is better.</text>

  <!-- ============== PANEL A: bar chart with CIs ============== -->
  <g transform="translate(60, 110)">
    <text x="0" y="0" class="h">A.  v5_adv_error  =  ⅓ · ( phish_takeover_miss  +  phish_takeover_mfa_phished_miss  +  hn_recovery_high_amount_fpr )</text>

    <!-- Plot area: 1280 x 360.  Y-axis is BROKEN at the top to keep the useful
         cluster (0.15-0.20 band) visually distinct.  Domain: [0, 0.30] for the
         linear region; the catastrophic lr=3e-4 bar (point = 0.752) is rendered
         as a clipped stub with a broken-axis zigzag and explicit "out of range"
         callout. -->
    <g transform="translate(0, 30)">
      <rect width="1280" height="360" fill="#FFFFFF"/>
      <!-- y-axis 0 ... 0.30 with break above 0.30 -->
      <line x1="60" y1="0" x2="60" y2="360" class="axis"/>
      <line x1="60" y1="360" x2="1280" y2="360" class="axis"/>
      <!-- gridlines + labels at 0.00, 0.05, 0.10, 0.15, 0.20, 0.25, 0.30
           y(v) = 360 - v * 1200 -->
      <g>
        <line x1="60" y1="360" x2="1280" y2="360" class="grid"/><text x="54" y="364" class="ax" text-anchor="end">0.00</text>
        <line x1="60" y1="300" x2="1280" y2="300" class="grid"/><text x="54" y="304" class="ax" text-anchor="end">0.05</text>
        <line x1="60" y1="240" x2="1280" y2="240" class="grid"/><text x="54" y="244" class="ax" text-anchor="end">0.10</text>
        <line x1="60" y1="180" x2="1280" y2="180" class="grid"/><text x="54" y="184" class="ax" text-anchor="end">0.15</text>
        <line x1="60" y1="120" x2="1280" y2="120" class="grid"/><text x="54" y="124" class="ax" text-anchor="end">0.20</text>
        <line x1="60" y1="60"  x2="1280" y2="60"  class="grid"/><text x="54" y="64"  class="ax" text-anchor="end">0.25</text>
        <line x1="60" y1="0"   x2="1280" y2="0"   class="grid"/><text x="54" y="4"   class="ax" text-anchor="end">0.30</text>
      </g>
      <text x="20" y="180" class="ax" text-anchor="middle" transform="rotate(-90 20,180)" font-weight="600">v5_adv_error  ·  lower is better</text>

      <!-- y-axis break zigzag, drawn near top of axis to indicate the chart is
           clipped above 0.30 (only the catastrophic bar exceeds this range). -->
      <g stroke="#94A3B8" stroke-width="1.2" fill="#FFFFFF">
        <path d="M 53,-8 L 58,-4 L 53,0 L 58,4 L 53,8 L 67,8 L 62,4 L 67,0 L 62,-4 L 67,-8 Z"/>
      </g>

      <!--
        y(v) = 360 - v * 1200     (0.00 -> 360,  0.30 -> 0)
        bar width 70, gap 30
        x-positions: 90, 190, 290, 390, 490, 590, 690, 790, 890, 990, 1090
      -->

      <!-- Bar 1: v4 seed (0.160; CI [0.131, 0.195]) -->
      <g transform="translate(90, 0)">
        <rect x="0" y="168" width="70" height="192" fill="#94A3B8"/>
        <line x1="35" y1="126" x2="35" y2="203" stroke="#1E2761" stroke-width="2"/>
        <line x1="25" y1="126" x2="45" y2="126" stroke="#1E2761" stroke-width="2"/>
        <line x1="25" y1="203" x2="45" y2="203" stroke="#1E2761" stroke-width="2"/>
        <text x="35" y="158" class="lblb" text-anchor="middle">0.160</text>
      </g>

      <!-- Bar 2: every_4 (0.151; CI [0.129, 0.189]) -->
      <g transform="translate(190, 0)">
        <rect x="0" y="179" width="70" height="181" fill="#1E2761"/>
        <line x1="35" y1="133" x2="35" y2="205" stroke="#1E2761" stroke-width="2"/>
        <line x1="25" y1="133" x2="45" y2="133" stroke="#1E2761" stroke-width="2"/>
        <line x1="25" y1="205" x2="45" y2="205" stroke="#1E2761" stroke-width="2"/>
        <text x="35" y="169" class="lblb" text-anchor="middle">0.151</text>
      </g>

      <!-- Bar 3: late_only (0.155; CI [0.129, 0.193]) -->
      <g transform="translate(290, 0)">
        <rect x="0" y="174" width="70" height="186" fill="#1E2761"/>
        <line x1="35" y1="128" x2="35" y2="205" stroke="#1E2761" stroke-width="2"/>
        <line x1="25" y1="128" x2="45" y2="128" stroke="#1E2761" stroke-width="2"/>
        <line x1="25" y1="205" x2="45" y2="205" stroke="#1E2761" stroke-width="2"/>
        <text x="35" y="164" class="lblb" text-anchor="middle">0.155</text>
      </g>

      <!-- Bar 4: zero_64 ★ WINNER (0.151; CI [0.124, 0.187]) -->
      <g transform="translate(390, 0)">
        <rect x="0" y="179" width="70" height="181" fill="#0D9488"/>
        <line x1="35" y1="136" x2="35" y2="211" stroke="#0D9488" stroke-width="2.5"/>
        <line x1="25" y1="136" x2="45" y2="136" stroke="#0D9488" stroke-width="2.5"/>
        <line x1="25" y1="211" x2="45" y2="211" stroke="#0D9488" stroke-width="2.5"/>
        <text x="35" y="169" class="lblb" text-anchor="middle" fill="#0D9488">0.151</text>
        <text x="35" y="120" class="acc" text-anchor="middle" fill="#0D9488">★ WINNER</text>
      </g>

      <!-- Bar 5: slots=128 (0.153; CI [0.129, 0.189]) -->
      <g transform="translate(490, 0)">
        <rect x="0" y="176" width="70" height="184" fill="#1E2761"/>
        <line x1="35" y1="133" x2="35" y2="205" stroke="#1E2761" stroke-width="2"/>
        <line x1="25" y1="133" x2="45" y2="133" stroke="#1E2761" stroke-width="2"/>
        <line x1="25" y1="205" x2="45" y2="205" stroke="#1E2761" stroke-width="2"/>
        <text x="35" y="166" class="lblb" text-anchor="middle">0.153</text>
      </g>

      <!-- Bar 6: slots=32 (0.166; CI [0.140, 0.202]) -->
      <g transform="translate(590, 0)">
        <rect x="0" y="161" width="70" height="199" fill="#1E2761"/>
        <line x1="35" y1="118" x2="35" y2="192" stroke="#1E2761" stroke-width="2"/>
        <line x1="25" y1="118" x2="45" y2="118" stroke="#1E2761" stroke-width="2"/>
        <line x1="25" y1="192" x2="45" y2="192" stroke="#1E2761" stroke-width="2"/>
        <text x="35" y="151" class="lblb" text-anchor="middle">0.166</text>
      </g>

      <!-- Bar 7: lora_r=32 (0.162; CI [0.135, 0.198]) -->
      <g transform="translate(690, 0)">
        <rect x="0" y="166" width="70" height="194" fill="#1E2761"/>
        <line x1="35" y1="123" x2="35" y2="198" stroke="#1E2761" stroke-width="2"/>
        <line x1="25" y1="123" x2="45" y2="123" stroke="#1E2761" stroke-width="2"/>
        <line x1="25" y1="198" x2="45" y2="198" stroke="#1E2761" stroke-width="2"/>
        <text x="35" y="156" class="lblb" text-anchor="middle">0.162</text>
      </g>

      <!-- Bar 8: lr=3e-5 slowlr (0.202; CI [0.167, 0.244]) -->
      <g transform="translate(790, 0)">
        <rect x="0" y="118" width="70" height="242" fill="#F59E0B"/>
        <line x1="35" y1="67" x2="35" y2="160" stroke="#F59E0B" stroke-width="2"/>
        <line x1="25" y1="67" x2="45" y2="67" stroke="#F59E0B" stroke-width="2"/>
        <line x1="25" y1="160" x2="45" y2="160" stroke="#F59E0B" stroke-width="2"/>
        <text x="35" y="108" class="lblb" text-anchor="middle" fill="#F59E0B">0.202</text>
      </g>

      <!-- Bar 9: pooled_mlp P2 (0.155; CI [0.129, 0.193]) -->
      <g transform="translate(890, 0)">
        <rect x="0" y="174" width="70" height="186" fill="#0D9488" opacity="0.65"/>
        <line x1="35" y1="128" x2="35" y2="205" stroke="#0D9488" stroke-width="2"/>
        <line x1="25" y1="128" x2="45" y2="128" stroke="#0D9488" stroke-width="2"/>
        <line x1="25" y1="205" x2="45" y2="205" stroke="#0D9488" stroke-width="2"/>
        <text x="35" y="164" class="lblb" text-anchor="middle">0.155</text>
        <text x="35" y="120" class="acc" text-anchor="middle" fill="#0D9488">P2</text>
      </g>

      <!-- Bar 10: ft_transformer P2 (0.174; CI [0.144, 0.211]) -->
      <g transform="translate(990, 0)">
        <rect x="0" y="151" width="70" height="209" fill="#0D9488" opacity="0.65"/>
        <line x1="35" y1="107" x2="35" y2="187" stroke="#0D9488" stroke-width="2"/>
        <line x1="25" y1="107" x2="45" y2="107" stroke="#0D9488" stroke-width="2"/>
        <line x1="25" y1="187" x2="45" y2="187" stroke="#0D9488" stroke-width="2"/>
        <text x="35" y="141" class="lblb" text-anchor="middle">0.174</text>
        <text x="35" y="120" class="acc" text-anchor="middle" fill="#0D9488">P2</text>
      </g>

      <!-- Bar 11: lr=3e-4 catastrophic (0.752 — OUT OF RANGE, clipped stub) -->
      <g transform="translate(1090, 0)">
        <!-- Stub bar drawn up to y=22 (so it touches the broken-axis indicator) -->
        <rect x="0" y="22" width="70" height="338" fill="#DC2626"/>
        <!-- Broken-axis zigzag at the top of the bar -->
        <g stroke="#FFFFFF" stroke-width="2" fill="#DC2626">
          <path d="M 0,22 L 10,30 L 25,18 L 45,30 L 60,18 L 70,22 L 70,32 L 60,28 L 45,40 L 25,28 L 10,40 L 0,32 Z"/>
        </g>
        <!-- Up-arrow + "out of range" label drawn above the bar -->
        <text x="35" y="12" class="lblb" text-anchor="middle" fill="#DC2626" font-size="14">↑ 0.752</text>
        <text x="35" y="-4" class="ax" text-anchor="middle" fill="#DC2626" font-size="10" font-style="italic">out of useful range</text>
      </g>

      <!-- X-axis labels: row 1 (top label = the run name) and row 2 (config detail) -->
      <g transform="translate(0, 380)">
        <text x="125" y="0" class="ax" text-anchor="middle" font-weight="700">v4 seed</text>
        <text x="225" y="0" class="ax" text-anchor="middle" font-weight="700">every_4</text>
        <text x="325" y="0" class="ax" text-anchor="middle" font-weight="700">late_only</text>
        <text x="425" y="0" class="ax" text-anchor="middle" font-weight="700" fill="#0D9488">zero_64</text>
        <text x="525" y="0" class="ax" text-anchor="middle" font-weight="700">slots=128</text>
        <text x="625" y="0" class="ax" text-anchor="middle" font-weight="700">slots=32</text>
        <text x="725" y="0" class="ax" text-anchor="middle" font-weight="700">lora_r=32</text>
        <text x="825" y="0" class="ax" text-anchor="middle" font-weight="700" fill="#F59E0B">lr = 3e-5</text>
        <text x="925" y="0" class="ax" text-anchor="middle" font-weight="700">pooled_mlp</text>
        <text x="1025" y="0" class="ax" text-anchor="middle" font-weight="700">ft_tx</text>
        <text x="1125" y="0" class="ax" text-anchor="middle" font-weight="700" fill="#DC2626">lr = 3e-4</text>
      </g>

      <!-- Row 2: smaller subtitle -->
      <g transform="translate(0, 400)" font-size="11">
        <text x="125" y="0" class="ax" text-anchor="middle">every_8 · 64 · α=.01</text>
        <text x="225" y="0" class="ax" text-anchor="middle">every_4 · 64</text>
        <text x="325" y="0" class="ax" text-anchor="middle">late_only · 64</text>
        <text x="425" y="0" class="ax" text-anchor="middle" fill="#0D9488">every_8 · α=zero</text>
        <text x="525" y="0" class="ax" text-anchor="middle">128 slots</text>
        <text x="625" y="0" class="ax" text-anchor="middle">32 slots</text>
        <text x="725" y="0" class="ax" text-anchor="middle">rank 32</text>
        <text x="825" y="0" class="ax" text-anchor="middle" fill="#F59E0B">slow LR</text>
        <text x="925" y="0" class="ax" text-anchor="middle">encoder swap</text>
        <text x="1025" y="0" class="ax" text-anchor="middle">encoder swap</text>
        <text x="1125" y="0" class="ax" text-anchor="middle" fill="#DC2626">catastrophic</text>
      </g>

      <!-- Phase brackets -->
      <line x1="100" y1="430" x2="780" y2="430" stroke="#1E2761" stroke-width="2"/>
      <text x="440" y="452" class="ax" text-anchor="middle" font-weight="700" fill="#1E2761">Phase 1   ·   training + architecture dial sweep</text>

      <line x1="800" y1="430" x2="1060" y2="430" stroke="#0D9488" stroke-width="2"/>
      <text x="930" y="452" class="ax" text-anchor="middle" font-weight="700" fill="#0D9488">Phase 2   ·   encoder</text>

      <line x1="1080" y1="430" x2="1160" y2="430" stroke="#DC2626" stroke-width="2"/>
      <text x="1120" y="452" class="ax" text-anchor="middle" font-weight="700" fill="#DC2626">regress</text>
    </g>
  </g>

  <!-- ============== PANEL B: decomposition of winner ============== -->
  <g transform="translate(60, 660)">
    <text x="0" y="0" class="h">B.  Decomposition of v5_adv_error for the Phase-1 winner  (exp_v5_p1_zero_64)</text>
    <text x="0" y="20" class="m">97 % of the error comes from one family. Within the 11-run sweep, no tested architectural dial moved hn_recovery_high_amount beyond bootstrap-CI noise (per-family n=78, CI width ~0.18).</text>

    <!-- Stacked bar with proportional widths -->
    <g transform="translate(0, 40)">
      <!-- Total bar bg -->
      <rect x="0" y="0" width="1280" height="50" fill="#F1F5F9" stroke="#94A3B8"/>

      <!--
        Total v5_adv_error = 0.452 (sum of the three: 0.000 + 0.014 + 0.438)
        Bar width 1280 represents the sum:
          phish_takeover_miss        = 0 / 0.452 = 0  → 0px
          phish_takeover_mfa_phished = 0.014 / 0.452 = 0.0310 → 40px
          hn_recovery_high_amount    = 0.438 / 0.452 = 0.9690 → 1240px
      -->

      <!-- Segment 1: phish_takeover_miss (negligible) -->
      <!-- omitted: 0 width -->

      <!-- Segment 2: phish_takeover_mfa_phished_miss = 40px -->
      <rect x="0" y="0" width="40" height="50" fill="#F59E0B"/>

      <!-- Segment 3: hn_recovery_high_amount = 1240px -->
      <rect x="40" y="0" width="1240" height="50" fill="#DC2626"/>

      <!-- Label INSIDE the dominant segment -->
      <text x="660" y="30" fill="#FFFFFF" font-size="16" font-weight="700" text-anchor="middle">hn_recovery_high_amount FPR  =  0.4377   ·   contributes ~ 97 % of v5_adv_error</text>
    </g>

    <!-- Legend BELOW the bar (no overlap) -->
    <g transform="translate(0, 110)">
      <g>
        <rect width="16" height="16" fill="#1E2761"/>
        <text x="24" y="12" class="t" font-weight="700">phish_takeover_miss</text>
        <text x="24" y="30" class="m">= 0.000   ·  recall 100 % on every config</text>
      </g>

      <g transform="translate(360, 0)">
        <rect width="16" height="16" fill="#F59E0B"/>
        <text x="24" y="12" class="t" font-weight="700">phish_takeover_mfa_phished_miss</text>
        <text x="24" y="30" class="m">= 0.014   ·  recall 98.6 %  —  the dial-sensitive family</text>
      </g>

      <g transform="translate(820, 0)">
        <rect width="16" height="16" fill="#DC2626"/>
        <text x="24" y="12" class="t" font-weight="700">hn_recovery_high_amount_fpr</text>
        <text x="24" y="30" class="m">= 0.438   ·  CI [0.360, 0.545]  —  stuck across non-pathological v5 runs</text>
      </g>
    </g>

    <text x="0" y="180" class="m">v5_adv_error = (0.000 + 0.014 + 0.438) / 3 = 0.151.   Architecture sweep cannot move the dominant term — the ceiling is upstream in the data generator's hn_recovery_high_amount template.</text>
  </g>
</svg>
